<?xml version="1.0" encoding="utf-8"?>
<!-- Generator: Adobe Illustrator 18.1.0, SVG Export Plug-In . SVG Version: 6.00 Build 0)  -->
<svg version="1.1" id="Layer_1" xmlns="http://www.w3.org/2000/svg" xmlns:xlink="http://www.w3.org/1999/xlink" x="0px" y="0px"
	 width="128px" height="24px" viewBox="0 0 128 24" enable-background="new 0 0 128 24" xml:space="preserve">
<g>
	<polygon points="48.4,3.6 35.5,3.6 35.5,5.7 40.7,5.7 40.7,20.3 43.2,20.3 43.2,5.7 48.4,5.7 	"/>
	<path d="M56.4,9.6c-0.1-0.1-0.3-0.2-0.4-0.4c-0.3-0.2-0.6-0.4-1-0.6c-0.3-0.2-0.7-0.3-1.1-0.4c-0.4-0.1-0.9-0.1-1.3-0.1
		c-1,0-1.8,0.2-2.5,0.5C49.3,9,48.7,9.5,48.2,10c-0.5,0.6-0.8,1.2-1.1,2c-0.2,0.7-0.4,1.5-0.4,2.2c0,0.5,0.1,1,0.1,1.5
		c0.1,0.5,0.3,1,0.5,1.5c0.2,0.5,0.5,0.9,0.8,1.3c0.3,0.4,0.7,0.8,1.1,1.1s0.9,0.6,1.5,0.7c0.5,0.2,1.2,0.3,1.8,0.3
		c0.5,0,0.9-0.1,1.4-0.2c0.4-0.1,0.8-0.3,1.2-0.4c0.4-0.2,0.7-0.4,1-0.6c0.1-0.1,0.2-0.2,0.3-0.2l0,1.2h2.3v-8.9l0-3.1h-2.3
		L56.4,9.6z M55.4,11.2c0.3,0.3,0.6,0.7,0.7,1.2c0.2,0.5,0.3,1,0.3,1.6c0,0.8-0.1,1.5-0.3,2c-0.2,0.6-0.5,1.1-0.8,1.5
		c-0.3,0.4-0.7,0.7-1.1,0.9c-0.9,0.4-1.9,0.4-2.7,0.1c-0.4-0.1-0.7-0.3-1-0.5c-0.3-0.2-0.5-0.4-0.7-0.7c-0.2-0.3-0.3-0.6-0.4-0.9
		c-0.1-0.3-0.2-0.7-0.2-1c0-0.3-0.1-0.7-0.1-1c0-0.3,0-0.7,0.1-1s0.2-0.7,0.3-1c0.1-0.3,0.3-0.6,0.5-0.9c0.2-0.3,0.4-0.5,0.7-0.7
		c0.3-0.2,0.6-0.4,0.9-0.5c0.3-0.1,0.7-0.2,1.1-0.2c0.6,0,1.1,0.1,1.5,0.3C54.7,10.6,55.1,10.8,55.4,11.2z"/>
	<path d="M71.7,10c-0.4-0.6-1-1-1.6-1.4s-1.5-0.5-2.4-0.5c-0.9,0-1.7,0.2-2.4,0.5c-0.5,0.2-1,0.6-1.4,1V3.2h-2.3v13.9
		c0,0,0,0.1,0,0.2l0,0.9c0,0.2,0,0.3,0,0.5c0,0.4,0,0.9,0,1.4l0,0.3h2.4l0-1.1c0.4,0.4,0.8,0.7,1.3,0.9c0.7,0.3,1.4,0.5,2.3,0.5
		c0.9,0,1.7-0.2,2.4-0.5c0.7-0.3,1.3-0.8,1.7-1.4c0.5-0.6,0.8-1.3,1-2c0.2-0.8,0.3-1.6,0.3-2.4c0-0.8-0.1-1.6-0.3-2.3
		C72.4,11.2,72.1,10.5,71.7,10z M67.2,10.1c0.5,0,1,0.1,1.4,0.3c0.4,0.2,0.8,0.5,1,0.8c0.3,0.3,0.5,0.8,0.7,1.2
		c0.2,0.5,0.2,1,0.2,1.5c0,0.6-0.1,1.1-0.2,1.7c-0.1,0.5-0.3,1-0.6,1.4c-0.3,0.4-0.6,0.7-1,1c-0.4,0.2-0.9,0.4-1.6,0.4
		c-0.6,0-1.2-0.1-1.6-0.3c-0.4-0.2-0.8-0.4-1-0.8c-0.3-0.3-0.5-0.8-0.6-1.2c-0.1-0.5-0.2-1.1-0.2-1.7c0-0.6,0.1-1.1,0.2-1.6
		c0.1-0.5,0.4-1,0.7-1.4c0.3-0.4,0.6-0.7,1.1-0.9C66.2,10.2,66.6,10.1,67.2,10.1z"/>
	<polygon points="85.4,3.6 72.5,3.6 72.5,5.7 77.7,5.7 77.7,20.3 80.2,20.3 80.2,5.7 85.4,5.7 	"/>
	<path d="M94.6,9.9c-0.5-0.6-1.1-1-1.9-1.3c-0.8-0.3-1.6-0.5-2.6-0.5c-1,0-1.9,0.2-2.6,0.5C86.7,8.9,86,9.4,85.5,10
		c-0.5,0.6-0.9,1.2-1.2,2c-0.3,0.8-0.4,1.6-0.4,2.4c0,0.8,0.1,1.7,0.4,2.4c0.3,0.8,0.7,1.4,1.2,2c0.5,0.6,1.2,1,1.9,1.3
		c0.8,0.3,1.6,0.5,2.6,0.5c1,0,1.8-0.2,2.6-0.5c0.8-0.3,1.4-0.8,1.9-1.4c0.5-0.6,0.9-1.2,1.2-2c0.3-0.7,0.4-1.5,0.4-2.4
		c0-0.9-0.1-1.7-0.4-2.4C95.5,11.2,95.1,10.5,94.6,9.9z M90.1,18.6c-0.6,0-1.2-0.1-1.6-0.3c-0.5-0.2-0.9-0.5-1.2-0.9
		C87,17,86.7,16.5,86.6,16c-0.2-0.5-0.2-1.1-0.2-1.6s0.1-1.1,0.2-1.6c0.2-0.5,0.4-1,0.7-1.4c0.3-0.4,0.7-0.7,1.2-0.9
		c0.5-0.2,1-0.3,1.6-0.3c0.6,0,1.2,0.1,1.6,0.3c0.5,0.2,0.8,0.5,1.1,0.9c0.3,0.4,0.5,0.8,0.7,1.4c0.1,0.5,0.2,1.1,0.2,1.7
		c0,0.6-0.1,1.1-0.2,1.6c-0.1,0.5-0.4,1-0.7,1.3c-0.3,0.4-0.7,0.7-1.1,0.9C91.2,18.5,90.7,18.6,90.1,18.6z"/>
	<path d="M111.7,6.9c-0.5-0.6-1-1.2-1.7-1.6c-0.6-0.4-1.4-0.8-2.1-1c-0.8-0.3-1.6-0.4-2.5-0.6c-0.9-0.1-1.8-0.2-2.8-0.2h-3.8v16.7
		h4.9c1.5,0,2.8-0.2,3.9-0.6c1.2-0.4,2.2-1,3-1.7c0.8-0.7,1.4-1.6,1.9-2.6c0.4-1,0.6-2.2,0.6-3.4c0-1.1-0.1-2-0.4-2.9
		C112.6,8.3,112.2,7.6,111.7,6.9z M103.9,18.2h-2.7V5.7h1.6c1.3,0,2.4,0.1,3.4,0.3c1,0.2,1.8,0.6,2.4,1.1c0.6,0.5,1.1,1.1,1.4,1.9
		c0.3,0.8,0.5,1.8,0.5,3c0,0.9-0.1,1.7-0.4,2.5c-0.3,0.7-0.7,1.4-1.2,1.9c-0.5,0.5-1.2,1-2.1,1.3C106.1,18,105.1,18.2,103.9,18.2z"
		/>
	<path d="M126.8,11.9c-0.3-0.8-0.6-1.4-1.1-2c-0.5-0.6-1.1-1-1.9-1.3c-0.8-0.3-1.6-0.5-2.6-0.5c-1,0-1.9,0.2-2.6,0.5
		c-0.8,0.3-1.4,0.8-1.9,1.4c-0.5,0.6-0.9,1.2-1.2,2c-0.3,0.8-0.4,1.6-0.4,2.4c0,0.8,0.1,1.7,0.4,2.4c0.3,0.8,0.7,1.4,1.2,2
		c0.5,0.6,1.2,1,1.9,1.3c0.8,0.3,1.6,0.5,2.6,0.5c1,0,1.8-0.2,2.6-0.5c0.8-0.3,1.4-0.8,1.9-1.4c0.5-0.6,0.9-1.2,1.2-2
		c0.3-0.7,0.4-1.5,0.4-2.4C127.2,13.5,127.1,12.7,126.8,11.9z M121.1,18.6c-0.6,0-1.2-0.1-1.6-0.3c-0.5-0.2-0.9-0.5-1.2-0.9
		c-0.3-0.4-0.5-0.8-0.7-1.3c-0.2-0.5-0.2-1.1-0.2-1.6s0.1-1.1,0.2-1.6c0.2-0.5,0.4-1,0.7-1.4c0.3-0.4,0.7-0.7,1.2-0.9
		c0.5-0.2,1-0.3,1.6-0.3c0.6,0,1.2,0.1,1.6,0.3c0.5,0.2,0.8,0.5,1.1,0.9c0.3,0.4,0.5,0.8,0.7,1.4c0.1,0.5,0.2,1.1,0.2,1.7
		c0,0.6-0.1,1.1-0.2,1.6c-0.1,0.5-0.4,1-0.7,1.3c-0.3,0.4-0.7,0.7-1.1,0.9C122.3,18.5,121.7,18.6,121.1,18.6z"/>
</g>
<g>
	<defs>
		<path id="XMLID_2_" d="M24.3,16.1L21.1,5.2c-0.2-0.6-0.8-1.1-1.5-1.1H9c-0.7,0-1.3,0.5-1.5,1.1L4.3,16.1c-0.2,0.6-0.8,1.1-1.5,1.1
			H1.4v2.9h25.9v-2.9h-1.5C25.1,17.2,24.5,16.7,24.3,16.1z"/>
	</defs>
	<use xlink:href="#XMLID_2_"  overflow="visible" fill="#00D45A"/>
	<clipPath id="XMLID_6_">
		<use xlink:href="#XMLID_2_"  overflow="visible"/>
	</clipPath>
	<g id="XMLID_1_" clip-path="url(#XMLID_6_)">
		<g>
			<path fill="#00D45A" d="M24.3,16.1L21.1,5.2c-0.2-0.6-0.8-1.1-1.5-1.1H9c-0.7,0-1.3,0.5-1.5,1.1L4.3,16.1
				c-0.2,0.6-0.8,1.1-1.5,1.1H1.4v3.9h25.9v-3.9h-1.5C25.1,17.2,24.5,16.7,24.3,16.1z"/>
		</g>
		<defs>
			<filter id="Adobe_OpacityMaskFilter" filterUnits="userSpaceOnUse" x="1.4" y="4.1" width="25.9" height="17">
				
					<feColorMatrix  type="matrix" values="-1 0 0 0 1  0 -1 0 0 1  0 0 -1 0 1  0 0 0 1 0" color-interpolation-filters="sRGB" result="source"/>
			</filter>
		</defs>
		<mask maskUnits="userSpaceOnUse" x="1.4" y="4.1" width="25.9" height="17" id="SVGID_1_">
			<g filter="url(#Adobe_OpacityMaskFilter)">
				<image overflow="visible" width="31" height="22" xlink:href="5B09C49FB1A31798.jpg"  transform="matrix(1 0 0 1 -1 2)">
				</image>
			</g>
		</mask>
		<g opacity="0.3" mask="url(#SVGID_1_)">
			<path d="M24.3,16.1L21.1,5.2c-0.2-0.6-0.8-1.1-1.5-1.1H9c-0.7,0-1.3,0.5-1.5,1.1L4.3,16.1c-0.2,0.6-0.8,1.1-1.5,1.1H1.4v3.9h25.9
				v-3.9h-1.5C25.1,17.2,24.5,16.7,24.3,16.1z"/>
		</g>
	</g>
</g>
<polyline opacity="0.3" fill="none" stroke="#000000" stroke-width="2.0228" stroke-linecap="round" stroke-miterlimit="10" points="
	18.4,10.6 12.9,16 10.2,13.3 "/>
<polyline fill="none" stroke="#FFFFFF" stroke-width="2.0228" stroke-linecap="round" stroke-miterlimit="10" points="18.4,9.3 
	12.9,14.6 10.2,11.9 "/>
</svg>
